# xmcd
#
# Track frame offsets:
#	150
#	11094
#	22700
#	35358
#	47052
#	61091
#	82120
#	92249
#	108570
#	122920
#	133758
#
# Disc length: 2005 seconds
#
# Revision: 1
# Processed by: cddbd v1.5.2PL0 Copyright (c) Steve Scherf et al.
# Submitted via: audiograbber 1.83.01
#
DISCID=8c07d30b
DTITLE=The Mountain Bluebirds - The Mountain Bluebirds
DYEAR=2006
DGENRE=Bluegrass
TTITLE0=Stickfish
TTITLE1=Your Mother's Gone
TTITLE2=Our New Home
TTITLE3=Milk and Honey
TTITLE4=Just not in the Market
TTITLE5=I Know You Rider
TTITLE6=Oh Susannah
TTITLE7=Riverbend
TTITLE8=Mercury
TTITLE9=Last Old Shovel
TTITLE10=Long Cold Day
EXTD=
EXTT0=
EXTT1=
EXTT2=
EXTT3=
EXTT4=
EXTT5=
EXTT6=
EXTT7=
EXTT8=
EXTT9=
EXTT10=
PLAYORDER=
